<svg width="32" height="32" viewBox="0 0 32 32" fill="none" xmlns="http://www.w3.org/2000/svg">
<g clip-path="url(#clip0_1030_6032)">
<path fill-rule="evenodd" clip-rule="evenodd" d="M3.42857 0C1.61371 0 0 1.38743 0 3.26857V13.9063C0 15.7897 1.61371 17.1749 3.42857 17.1749H4.75886V12.5714C4.75886 11.552 5.19314 10.5966 5.93143 9.91086C6.66903 9.2305 7.63654 8.85411 8.64 8.85714H23.36C24.3566 8.85714 25.3326 9.22514 26.0686 9.90857C26.8046 10.5966 27.2411 11.5543 27.2411 12.5714V17.1771H28.5714C30.3863 17.1771 32 15.7897 32 13.9086V3.26857C32 1.38743 30.3863 0 28.5714 0H3.42857ZM24.384 17.1771H7.616V12.5714C7.616 12.3771 7.69829 12.1691 7.87886 12C8.08783 11.8128 8.35946 11.7108 8.64 11.7143H23.36C23.6398 11.7114 23.9105 11.8133 24.1189 12C24.3017 12.1691 24.384 12.3771 24.384 12.5714V17.1771ZM10.8571 22.2834C10.8571 21.8288 10.6765 21.3927 10.355 21.0712C10.0336 20.7498 9.59751 20.5691 9.14286 20.5691C8.6882 20.5691 8.25216 20.7498 7.93067 21.0712C7.60918 21.3927 7.42857 21.8288 7.42857 22.2834V24.7977C7.42857 25.1918 7.27204 25.5696 6.99342 25.8483C6.71479 26.1269 6.33689 26.2834 5.94286 26.2834H5.71429C5.25963 26.2834 4.82359 26.464 4.5021 26.7855C4.18061 27.107 4 27.5431 4 27.9977C4 28.4524 4.18061 28.8884 4.5021 29.2099C4.82359 29.5314 5.25963 29.712 5.71429 29.712H5.94286C7.24621 29.712 8.49618 29.1942 9.41778 28.2726C10.3394 27.351 10.8571 26.1011 10.8571 24.7977V22.2834ZM22.8571 20.5691C22.4025 20.5691 21.9665 20.7498 21.645 21.0712C21.3235 21.3927 21.1429 21.8288 21.1429 22.2834V24.7977C21.1429 26.1011 21.6606 27.351 22.5822 28.2726C23.5038 29.1942 24.7538 29.712 26.0571 29.712H26.2857C26.7404 29.712 27.1764 29.5314 27.4979 29.2099C27.8194 28.8884 28 28.4524 28 27.9977C28 27.5431 27.8194 27.107 27.4979 26.7855C27.1764 26.464 26.7404 26.2834 26.2857 26.2834H26.0571C25.6631 26.2834 25.2852 26.1269 25.0066 25.8483C24.728 25.5696 24.5714 25.1918 24.5714 24.7977V22.2834C24.5714 21.8288 24.3908 21.3927 24.0693 21.0712C23.7478 20.7498 23.3118 20.5691 22.8571 20.5691ZM17.7143 22.2834C17.7143 21.8288 17.5337 21.3927 17.2122 21.0712C16.8907 20.7498 16.4547 20.5691 16 20.5691C15.5453 20.5691 15.1093 20.7498 14.7878 21.0712C14.4663 21.3927 14.2857 21.8288 14.2857 22.2834V30.2834C14.2857 30.7381 14.4663 31.1741 14.7878 31.4956C15.1093 31.8171 15.5453 31.9977 16 31.9977C16.4547 31.9977 16.8907 31.8171 17.2122 31.4956C17.5337 31.1741 17.7143 30.7381 17.7143 30.2834V22.2834Z" fill="#0038A7"/>
</g>
<defs>
<clipPath id="clip0_1030_6032">
<rect width="32" height="32" fill="white"/>
</clipPath>
</defs>
</svg>
