<svg width="51" height="50" viewBox="0 0 51 50" fill="none" xmlns="http://www.w3.org/2000/svg">
<path d="M46.2108 24.9703C46.2108 36.4235 36.9262 45.7081 25.473 45.7081C14.0198 45.7081 4.73511 36.4235 4.73511 24.9703C4.73511 13.5171 14.0198 4.23242 25.473 4.23242C36.9262 4.23242 46.2108 13.5171 46.2108 24.9703Z" fill="#DDA5A4"/>
<path d="M40.0118 1.8131C35.1769 6.65137 30.3336 11.4905 25.5038 16.3296C20.6655 11.493 15.8272 6.65391 10.9873 1.8131C5.38889 -3.78273 -3.28546 4.89585 2.31037 10.4917C7.14695 15.3257 11.9878 20.1674 16.8184 24.9997C11.9844 29.8363 7.14441 34.6771 2.31037 39.5162C-3.28546 45.1104 5.39312 53.7864 10.9873 48.194C15.8238 43.3548 20.6621 38.5166 25.5038 33.6775C30.342 38.5166 35.1769 43.3531 40.0118 48.194C45.6085 53.7873 54.2837 45.1104 48.6921 39.5171C43.853 34.678 39.0147 29.8414 34.1756 25.0006C39.0155 20.1623 43.8538 15.3232 48.6921 10.4841C54.2837 4.88993 45.6085 -3.78866 40.0118 1.80718" fill="#E53935"/>
</svg>
