<svg width="24" height="28" viewBox="0 0 24 28" fill="none" xmlns="http://www.w3.org/2000/svg">
<path fill-rule="evenodd" clip-rule="evenodd" d="M6.808 1.40384C6.91865 1.1824 7.08877 0.996133 7.2993 0.865907C7.50983 0.735681 7.75245 0.666636 8 0.666504H16C16.2475 0.666636 16.4902 0.735681 16.7007 0.865907C16.9112 0.996133 17.0813 1.1824 17.192 1.40384L19.4907 5.99984H22.6667C23.0203 5.99984 23.3594 6.14031 23.6095 6.39036C23.8595 6.64041 24 6.97955 24 7.33317C24 7.68679 23.8595 8.02593 23.6095 8.27598C23.3594 8.52603 23.0203 8.6665 22.6667 8.6665H21.3333V23.3332C21.3333 24.394 20.9119 25.4115 20.1618 26.1616C19.4116 26.9117 18.3942 27.3332 17.3333 27.3332H6.66667C5.6058 27.3332 4.58839 26.9117 3.83824 26.1616C3.08809 25.4115 2.66667 24.394 2.66667 23.3332V8.6665H1.33333C0.979711 8.6665 0.640573 8.52603 0.390524 8.27598C0.140476 8.02593 0 7.68679 0 7.33317C0 6.97955 0.140476 6.64041 0.390524 6.39036C0.640573 6.14031 0.979711 5.99984 1.33333 5.99984H4.50933L6.808 1.40384ZM15.176 3.33317L16.5093 5.99984H7.49067L8.824 3.33317H15.176ZM10.6667 12.6665C10.6667 12.3129 10.5262 11.9737 10.2761 11.7237C10.0261 11.4736 9.68696 11.3332 9.33333 11.3332C8.97971 11.3332 8.64057 11.4736 8.39052 11.7237C8.14048 11.9737 8 12.3129 8 12.6665V20.6665C8 21.0201 8.14048 21.3593 8.39052 21.6093C8.64057 21.8594 8.97971 21.9998 9.33333 21.9998C9.68696 21.9998 10.0261 21.8594 10.2761 21.6093C10.5262 21.3593 10.6667 21.0201 10.6667 20.6665V12.6665ZM16 12.6665C16 12.3129 15.8595 11.9737 15.6095 11.7237C15.3594 11.4736 15.0203 11.3332 14.6667 11.3332C14.313 11.3332 13.9739 11.4736 13.7239 11.7237C13.4738 11.9737 13.3333 12.3129 13.3333 12.6665V20.6665C13.3333 21.0201 13.4738 21.3593 13.7239 21.6093C13.9739 21.8594 14.313 21.9998 14.6667 21.9998C15.0203 21.9998 15.3594 21.8594 15.6095 21.6093C15.8595 21.3593 16 21.0201 16 20.6665V12.6665Z" fill="#E53935"/>
</svg>
