<svg width="33" height="32" viewBox="0 0 33 32" fill="none" xmlns="http://www.w3.org/2000/svg">
<path d="M26.2777 9.83069C26.2777 15.5542 21.8333 16.4431 21.8333 21.7774C21.8333 24.5311 19.0573 24.7631 16.9444 24.7631C15.1195 24.7631 11.0902 24.0707 11.0902 21.7756C11.0902 16.444 6.72217 15.5551 6.72217 9.83069C6.72217 4.4698 11.4199 0.124023 16.5737 0.124023C21.7293 0.124023 26.2777 4.4698 26.2777 9.83069Z" fill="#FFD983"/>
<path d="M20.204 28.8891C20.204 29.6251 18.2182 31.1113 16.5 31.1113C14.7818 31.1113 12.796 29.6251 12.796 28.8891C12.796 28.1531 14.7809 28.4447 16.5 28.4447C18.2182 28.4447 20.204 28.1531 20.204 28.8891Z" fill="#CCD6DD"/>
<path d="M20.684 9.1493C20.6015 9.06668 20.5035 9.00113 20.3957 8.95641C20.2879 8.91169 20.1723 8.88867 20.0555 8.88867C19.9388 8.88867 19.8232 8.91169 19.7154 8.95641C19.6075 9.00113 19.5096 9.06668 19.4271 9.1493L16.5 12.0764L13.5729 9.1493C13.4903 9.06677 13.3924 9.0013 13.2845 8.95664C13.1767 8.91197 13.0611 8.88898 12.9444 8.88898C12.8277 8.88898 12.7121 8.91197 12.6043 8.95664C12.4965 9.0013 12.3985 9.06677 12.316 9.1493C12.2334 9.23182 12.168 9.3298 12.1233 9.43763C12.0787 9.54546 12.0557 9.66103 12.0557 9.77774C12.0557 9.89445 12.0787 10.01 12.1233 10.1179C12.168 10.2257 12.2334 10.3237 12.316 10.4062L15.6111 13.7013V23.1111C15.6111 23.3468 15.7047 23.5729 15.8714 23.7396C16.0381 23.9063 16.2642 24 16.5 24C16.7357 24 16.9618 23.9063 17.1285 23.7396C17.2952 23.5729 17.3889 23.3468 17.3889 23.1111V13.7013L20.684 10.4062C20.7666 10.3237 20.8321 10.2257 20.8769 10.1179C20.9216 10.0101 20.9446 9.89448 20.9446 9.77774C20.9446 9.661 20.9216 9.5454 20.8769 9.43757C20.8321 9.32973 20.7666 9.23177 20.684 9.1493Z" fill="#FFCC4D"/>
<path d="M21.8333 27.556C21.8333 28.0275 21.646 28.4797 21.3126 28.8131C20.9792 29.1465 20.527 29.3338 20.0555 29.3338H12.9444C12.4729 29.3338 12.0207 29.1465 11.6873 28.8131C11.3539 28.4797 11.1666 28.0275 11.1666 27.556V22.2227H21.8333V27.556Z" fill="#99AAB5"/>
<path d="M11.1657 28.4443C10.9432 28.4435 10.729 28.3592 10.5655 28.2081C10.4021 28.057 10.3013 27.85 10.2831 27.6282C10.2649 27.4063 10.3306 27.1857 10.4672 27.01C10.6038 26.8342 10.8014 26.7161 11.0209 26.679L21.6875 24.9012C21.8027 24.8814 21.9207 24.8846 22.0346 24.9107C22.1485 24.9368 22.2561 24.9852 22.3512 25.0532C22.4462 25.1211 22.5269 25.2073 22.5884 25.3066C22.65 25.4059 22.6912 25.5165 22.7097 25.6319C22.729 25.747 22.7253 25.8648 22.699 25.9784C22.6726 26.0921 22.6241 26.1995 22.5563 26.2944C22.4884 26.3894 22.4025 26.47 22.3035 26.5317C22.2044 26.5934 22.0942 26.635 21.9791 26.6541L11.3124 28.4319C11.264 28.4404 11.2149 28.4446 11.1657 28.4443ZM11.1657 24.8888C10.9432 24.888 10.729 24.8036 10.5655 24.6525C10.4021 24.5014 10.3013 24.2945 10.2831 24.0726C10.2649 23.8508 10.3306 23.6302 10.4672 23.4544C10.6038 23.2787 10.8014 23.1606 11.0209 23.1234L21.6875 21.3457C21.8027 21.326 21.9206 21.3293 22.0345 21.3554C22.1483 21.3816 22.2559 21.43 22.3509 21.4979C22.446 21.5659 22.5266 21.6519 22.5882 21.7512C22.6498 21.8505 22.6911 21.961 22.7097 22.0763C22.729 22.1914 22.7253 22.3092 22.699 22.4229C22.6726 22.5366 22.6241 22.644 22.5563 22.7389C22.4884 22.8338 22.4025 22.9145 22.3035 22.9762C22.2044 23.0379 22.0942 23.0795 21.9791 23.0986L11.3124 24.8763C11.264 24.8848 11.2149 24.889 11.1657 24.8888Z" fill="#CCD6DD"/>
</svg>
