<svg width="17" height="11" viewBox="0 0 17 11" fill="none" xmlns="http://www.w3.org/2000/svg">
<path d="M1.03044 0.873722C1.16144 0.738228 1.31703 0.630732 1.48832 0.557387C1.6596 0.484042 1.84322 0.446289 2.02866 0.446289C2.2141 0.446289 2.39772 0.484042 2.56901 0.557387C2.7403 0.630732 2.89589 0.738228 3.02688 0.873722L8.52063 6.54469L14.0144 0.873722C14.2791 0.600438 14.6382 0.446908 15.0126 0.446908C15.387 0.446908 15.7461 0.600438 16.0108 0.873722C16.2756 1.14701 16.4243 1.51766 16.4243 1.90414C16.4243 2.29062 16.2756 2.66128 16.0108 2.93456L9.51177 9.64326C9.38078 9.77875 9.22519 9.88625 9.0539 9.95959C8.88261 10.0329 8.69899 10.0707 8.51355 10.0707C8.32811 10.0707 8.14449 10.0329 7.9732 9.95959C7.80192 9.88625 7.64632 9.77875 7.51533 9.64326L1.01628 2.93456C0.478237 2.37916 0.478238 1.44374 1.03044 0.873722Z" fill="#0038A7"/>
</svg>
